Coordinates
version=1
nRows=43
nColumns=12
inDegrees=yes

Units are S.I. units (second, meters, Newtons, ...)
Angles are in degrees

endheader
time	SC_y	SC_z	SC_x	AC_y	AC_z	AC_x	GH_y	GH_z	GH_yy	EL_x	PS_y
       0.0               -17.6          18.74           66.3          60.39         -10.77          8.987          22.63          82.82         -96.89          120.1          138.8
   0.04158              -17.61          18.74          66.29          60.39         -10.77          8.986          22.64          82.81         -96.87          120.1          138.8
   0.08316              -17.61          18.75          66.28          60.39         -10.76          8.984          22.65           82.8         -96.84          120.1          138.7
    0.1247              -17.62          18.75          66.27          60.39         -10.76          8.982          22.66          82.79         -96.81          120.1          138.7
    0.1663              -17.62          18.75          66.26          60.39         -10.76          8.981          22.67          82.78         -96.78          120.1          138.7
    0.2079              -17.63          18.76          66.25          60.39         -10.76          8.979          22.68          82.76         -96.75          120.1          138.7
    0.2495              -17.63          18.76          66.23          60.39         -10.75          8.977           22.7          82.75         -96.71          120.1          138.7
     0.291              -17.64          18.76          66.22          60.39         -10.75          8.974          22.71          82.74         -96.68          120.1          138.6
    0.3326              -17.64          18.77           66.2          60.39         -10.75          8.972          22.73          82.72         -96.64          120.1          138.6
    0.3742              -17.65          18.77          66.19          60.39         -10.74          8.969          22.74          82.71          -96.6          120.1          138.6
    0.4158              -17.66          18.78          66.17          60.39         -10.74          8.967          22.76          82.69         -96.55          120.1          138.6
    0.4574              -17.66          18.78          66.15          60.39         -10.74          8.964          22.78          82.67          -96.5          120.1          138.5
    0.4989              -17.67          18.79          66.13          60.39         -10.73          8.961           22.8          82.65         -96.45          120.1          138.5
    0.5405              -17.68          18.79          66.11          60.39         -10.73          8.957          22.82          82.63         -96.39          120.1          138.5
    0.5821              -17.69           18.8          66.09          60.39         -10.72          8.954          22.84          82.61         -96.33          120.1          138.4
    0.6237               -17.7          18.81          66.06          60.39         -10.72           8.95          22.87          82.58         -96.26          120.1          138.4
    0.6652              -17.71          18.81          66.04          60.39         -10.71          8.945           22.9          82.55         -96.19          120.1          138.4
    0.7068              -17.72          18.82          66.01           60.4          -10.7           8.94          22.93          82.53         -96.11          120.0          138.3
    0.7484              -17.74          18.83          65.97           60.4          -10.7          8.935          22.96          82.49         -96.02          120.0          138.3
      0.79              -17.75          18.84          65.94           60.4         -10.69           8.93           23.0          82.46         -95.93          120.0          138.2
    0.8316              -17.77          18.85           65.9           60.4         -10.68          8.923          23.04          82.42         -95.83          120.0          138.1
    0.8731              -17.78          18.86          65.86           60.4         -10.67          8.916          23.08          82.38         -95.71          120.0          138.1
    0.9147               -17.8          18.88          65.81           60.4         -10.66          8.909          23.13          82.33         -95.58          120.0          138.0
    0.9563              -17.82          18.89          65.76           60.4         -10.65          8.901          23.18          82.28         -95.44          120.0          137.9
    0.9979              -17.85          18.91           65.7          60.41         -10.64          8.891          23.24          82.22         -95.29          119.9          137.8
     1.039              -17.87          18.93          65.63          60.41         -10.62          8.881          23.31          82.15         -95.11          119.9          137.7
     1.081               -17.9          18.95          65.56          60.41          -10.6          8.869          23.39          82.08         -94.92          119.9          137.6
     1.123              -17.93          18.97          65.48          60.41         -10.59          8.856          23.47           82.0          -94.7          119.9          137.5
     1.164              -17.97           19.0          65.38          60.41         -10.57          8.841          23.56          81.91         -94.45          119.8          137.3
     1.206              -18.01          19.03          65.28          60.42         -10.54          8.824          23.67           81.8         -94.17          119.8          137.2
     1.247              -18.06          19.06          65.16          60.42         -10.52          8.805           23.8          81.68         -93.85          119.8          137.0
     1.289              -18.12           19.1          65.02          60.43         -10.49          8.783          23.94          81.55         -93.48          119.7          136.8
      1.33              -18.18          19.14          64.86          60.43         -10.45          8.758           24.1          81.39         -93.06          119.7          136.5
     1.372              -18.26           19.2          64.68          60.44         -10.41          8.728          24.29           81.2         -92.56          119.6          136.2
     1.414              -18.34          19.26          64.46          60.44         -10.36          8.693          24.51          80.99         -91.98          119.5          135.9
     1.455              -18.45          19.33           64.2          60.45         -10.31          8.653          24.77          80.74          -91.3          119.5          135.5
     1.497              -18.57          19.41           63.9          60.46         -10.24          8.604          25.08          80.43         -90.49          119.4          135.0
     1.538              -18.71          19.52          63.54          60.47         -10.16          8.546          25.45          80.07         -89.52          119.2          134.4
      1.58              -18.89          19.64           63.1          60.49         -10.06          8.476           25.9          79.63         -88.35          119.1          133.7
     1.622              -19.11          19.79          62.56           60.5         -9.942           8.39          26.45           79.1         -86.91          118.9          132.9
     1.663              -19.37          19.98          61.89          60.52         -9.795          8.284          27.13          78.44         -85.14          118.7          131.8
     1.705              -19.71          20.21          61.07          60.55         -9.612          8.152          27.98          77.62         -82.93          118.5          130.5
     1.746              -20.12           20.5          60.02          60.58         -9.382          7.985          29.05          76.58         -80.15          118.1          128.9
